# xmcd CD database file
#
# Track frame offsets:
#	150
#	14805
#	26780
#	42332
#	57076
#	64754
#	83381
#	94250
#	109117
#	123606
#	138129
#	161898
#
# Disc length: 2305 seconds
#
# Revision: 1
# Processed by: cddbd v1.5.2PL0 Copyright (c) Steve Scherf et al.
# Submitted via: CDex 1.51
#
DISCID=a108ff0c
DTITLE=Keller Steff - Bulldogfahrer
DYEAR=2009
DGENRE=Folk-Rock
TTITLE0=Bulldogfahrer
TTITLE1=Hoizschneck
TTITLE2=Warten
TTITLE3=Mobilsei des is wunderbar
TTITLE4=Mera Lohn fuerd Krangaschwesta
TTITLE5=Gruene Wiesn
TTITLE6=Bleckschneck
TTITLE7=Koenigswobbler
TTITLE8=Pillermann
TTITLE9=Kaibiziang
TTITLE10=Marionette
TTITLE11=Gedicht
EXTD=YEAR: 2009
EXTT0=
EXTT1=
EXTT2=
EXTT3=
EXTT4=
EXTT5=
EXTT6=
EXTT7=
EXTT8=
EXTT9=
EXTT10=
EXTT11=
PLAYORDER=
